<?xml version="1.0" encoding="UTF-8"?>
<!DOCTYPE svg PUBLIC "-//W3C//DTD SVG 1.1//EN" "http://www.w3.org/Graphics/SVG/1.1/DTD/svg11.dtd">
<svg xmlns="http://www.w3.org/2000/svg" version="1.1" style="shape-rendering:geometricPrecision; text-rendering:geometricPrecision; image-rendering:optimizeQuality; fill-rule:evenodd; clip-rule:evenodd">
<g><path style="opacity:0.951" fill="#000000" d="M 511.5,256.5 C 511.5,274.5 511.5,292.5 511.5,310.5C 502.231,338.157 482.898,350.157 453.5,346.5C 445.115,374.366 426.282,389.033 397,390.5C 367.718,389.033 348.885,374.366 340.5,346.5C 281.833,346.5 223.167,346.5 164.5,346.5C 156.115,374.366 137.282,389.033 108,390.5C 78.7182,389.033 59.8848,374.366 51.5,346.5C 24.7786,347.823 7.44522,335.823 -0.5,310.5C -0.5,294.167 -0.5,277.833 -0.5,261.5C 3.94901,244.21 14.6157,232.377 31.5,226C 58.2824,218.805 84.949,211.305 111.5,203.5C 128.5,181.5 145.5,159.5 162.5,137.5C 171.582,128.292 182.582,122.792 195.5,121C 252.833,120.333 310.167,120.333 367.5,121C 382.109,123.553 394.276,130.386 404,141.5C 417.439,163.269 431.272,184.769 445.5,206C 463.207,213.021 480.207,221.354 496.5,231C 503.729,238.306 508.729,246.806 511.5,256.5 Z M 198.5,142.5 C 254.168,142.333 309.834,142.5 365.5,143C 373.546,144.721 380.379,148.554 386,154.5C 400.25,177.336 414.75,200.003 429.5,222.5C 446.015,230.59 462.682,238.424 479.5,246C 484.031,249.571 487.198,254.071 489,259.5C 489.667,275.167 489.667,290.833 489,306.5C 483.183,322.326 472.016,327.993 455.5,323.5C 448.792,292.122 429.459,275.455 397.5,273.5C 365.039,275.396 345.372,292.229 338.5,324C 281.164,324.833 223.83,324.667 166.5,323.5C 159.792,292.122 140.459,275.455 108.5,273.5C 76.339,275.415 56.6723,292.082 49.5,323.5C 32.9689,325.485 23.4689,318.152 21,301.5C 20.3333,290.5 20.3333,279.5 21,268.5C 22.2647,259.135 27.0981,252.302 35.5,248C 64.9341,239.975 94.2674,231.642 123.5,223C 141.049,201.119 158.216,178.952 175,156.5C 181.525,149.442 189.358,144.775 198.5,142.5 Z M 107.5,294.5 C 136.91,299.307 148.41,316.307 142,345.5C 130.986,365.752 114.486,372.252 92.5,365C 73.9915,354.474 67.8248,338.974 74,318.5C 80.5912,303.967 91.7579,295.967 107.5,294.5 Z M 396.5,294.5 C 425.915,299.321 437.415,316.321 431,345.5C 420.096,365.917 403.596,372.417 381.5,365C 362.991,354.474 356.825,338.974 363,318.5C 369.591,303.967 380.758,295.967 396.5,294.5 Z"/></g>
</svg>
